<?xml version="1.0" encoding="iso-8859-1"?>
<!-- Generator: Adobe Illustrator 24.0.0, SVG Export Plug-In . SVG Version: 6.00 Build 0)  -->
<svg version="1.1" id="Layer_0" xmlns="http://www.w3.org/2000/svg" xmlns:xlink="http://www.w3.org/1999/xlink" x="0px" y="0px"
	 viewBox="0 0 4343.388 2835.305" xml:space="preserve">
<g id="NS">
	
		<polygon points="
		3767.179,2042.951 3767.179,2117.355 3831.615,2154.557 3896.051,2117.355 3896.051,2042.951 3831.615,2005.749 	"/>
	
		<polygon points="
		3638.46,2266.164 3638.46,2340.568 3702.896,2377.77 3767.332,2340.568 3767.332,2266.164 3702.896,2228.962 	"/>
	
		<polygon points="
		3702.82,2154.557 3702.82,2228.962 3767.256,2266.164 3831.692,2228.962 3831.692,2154.557 3767.256,2117.355 	"/>
	
		<polygon points="
		3638.46,2042.951 3638.46,2117.355 3702.896,2154.557 3767.332,2117.355 3767.332,2042.951 3702.896,2005.749 	"/>
	
		<polygon points="
		3574.1,2154.557 3574.1,2228.962 3638.536,2266.164 3702.972,2228.962 3702.972,2154.557 3638.536,2117.355 	"/>
</g>
<g id="NB">
	
		<polygon points="
		3509.74,2266.164 3509.74,2340.568 3574.177,2377.77 3638.613,2340.568 3638.613,2266.164 3574.177,2228.962 	"/>
	
		<polygon points="
		3381.021,2266.164 3381.021,2340.568 3445.457,2377.77 3509.893,2340.568 3509.893,2266.164 3445.457,2228.962 	"/>
	
		<polygon points="
		3445.381,2154.557 3445.381,2228.962 3509.817,2266.164 3574.253,2228.962 3574.253,2154.557 3509.817,2117.355 	"/>
	
		<polygon points="
		3252.302,2266.164 3252.302,2340.568 3316.738,2377.77 3381.174,2340.568 3381.174,2266.164 3316.738,2228.962 	"/>
	
		<polygon points="
		3316.661,2154.557 3316.661,2228.962 3381.097,2266.164 3445.533,2228.962 3445.533,2154.557 3381.097,2117.355 	"/>
</g>
<g id="NL">
	
		<polygon points="
		3895.899,1596.525 3895.899,1670.929 3960.335,1708.132 4024.771,1670.929 4024.771,1596.525 3960.335,1559.323 	"/>
	
		<polygon points="
		3831.539,1708.132 3831.539,1782.536 3895.975,1819.738 3960.411,1782.536 3960.411,1708.132 3895.975,1670.929 	"/>
	
		<polygon points="
		3767.179,1596.525 3767.179,1670.929 3831.615,1708.132 3896.051,1670.929 3896.051,1596.525 3831.615,1559.323 	"/>
	
		<polygon points="
		3831.54,1484.919 3831.54,1559.323 3895.976,1596.525 3960.412,1559.323 3960.412,1484.919 3895.976,1447.717 	"/>
	
		<polygon points="
		3702.82,1708.132 3702.82,1782.536 3767.256,1819.738 3831.692,1782.536 3831.692,1708.132 3767.256,1670.929 	"/>
	
		<polygon points="
		3638.46,1596.525 3638.46,1670.929 3702.896,1708.132 3767.332,1670.929 3767.332,1596.525 3702.896,1559.323 	"/>
	
		<polygon points="
		3702.821,1484.919 3702.821,1559.323 3767.257,1596.525 3831.693,1559.323 3831.693,1484.919 3767.257,1447.717 	"/>
	
		<polygon points="
		3638.461,1373.312 3638.461,1447.717 3702.897,1484.919 3767.333,1447.717 3767.333,1373.312 3702.897,1336.11 	"/>
	
		<polygon points="
		3574.101,1484.919 3574.101,1559.323 3638.537,1596.525 3702.973,1559.323 3702.973,1484.919 3638.537,1447.717 	"/>
	
		<polygon points="
		3509.741,1373.312 3509.741,1447.717 3574.177,1484.919 3638.614,1447.717 3638.614,1373.312 3574.177,1336.11 	"/>
	
		<polygon points="
		3381.021,1596.525 3381.021,1670.929 3445.457,1708.132 3509.893,1670.929 3509.893,1596.525 3445.457,1559.323 	"/>
	
		<polygon points="
		3445.382,1484.919 3445.382,1559.323 3509.818,1596.525 3574.254,1559.323 3574.254,1484.919 3509.818,1447.717 	"/>
	
		<polygon points="
		3381.022,1373.312 3381.022,1447.717 3445.458,1484.919 3509.894,1447.717 3509.894,1373.312 3445.458,1336.11 	"/>
	
		<polygon points="
		3445.382,1261.706 3445.382,1336.11 3509.818,1373.312 3574.254,1336.11 3574.254,1261.706 3509.818,1224.504 	"/>
	
		<polygon points="
		3252.302,1596.525 3252.302,1670.929 3316.738,1708.132 3381.174,1670.929 3381.174,1596.525 3316.738,1559.323 	"/>
	
		<polygon points="
		3316.662,1484.919 3316.662,1559.323 3381.098,1596.525 3445.534,1559.323 3445.534,1484.919 3381.098,1447.717 	"/>
	
		<polygon points="
		3252.303,1373.312 3252.303,1447.717 3316.739,1484.919 3381.175,1447.717 3381.175,1373.312 3316.739,1336.11 	"/>
	
		<polygon points="
		3316.662,1261.706 3316.662,1336.11 3381.098,1373.312 3445.534,1336.11 3445.534,1261.706 3381.098,1224.504 	"/>
	
		<polygon points="
		3187.943,1484.919 3187.943,1559.323 3252.379,1596.525 3316.815,1559.323 3316.815,1484.919 3252.379,1447.717 	"/>
	
		<polygon points="
		3123.583,1373.312 3123.583,1447.717 3188.019,1484.919 3252.455,1447.717 3252.455,1373.312 3188.019,1336.11 	"/>
	
		<polygon points="
		3187.943,1261.706 3187.943,1336.11 3252.379,1373.312 3316.815,1336.11 3316.815,1261.706 3252.379,1224.504 	"/>
	
		<polygon points="
		3123.583,1150.099 3123.583,1224.504 3188.019,1261.706 3252.455,1224.504 3252.455,1150.099 3188.019,1112.897 	"/>
	
		<polygon points="
		3059.223,1261.706 3059.223,1336.11 3123.659,1373.312 3188.095,1336.11 3188.095,1261.706 3123.659,1224.504 	"/>
	
		<polygon points="
		2994.864,1150.099 2994.864,1224.504 3059.3,1261.706 3123.736,1224.504 3123.736,1150.099 3059.3,1112.897 	"/>
</g>
<g id="QC">
	
		<polygon points="
		3509.74,1819.738 3509.74,1894.142 3574.177,1931.344 3638.613,1894.142 3638.613,1819.738 3574.177,1782.536 	"/>
	
		<polygon points="
		3574.1,1708.132 3574.1,1782.536 3638.536,1819.738 3702.972,1782.536 3702.972,1708.132 3638.536,1670.929 	"/>
	
		<polygon points="
		3509.74,1596.525 3509.74,1670.929 3574.177,1708.132 3638.613,1670.929 3638.613,1596.525 3574.177,1559.323 	"/>
	
		<polygon points="
		3381.021,1819.738 3381.021,1894.142 3445.457,1931.344 3509.893,1894.142 3509.893,1819.738 3445.457,1782.536 	"/>
	
		<polygon points="
		3445.381,1708.132 3445.381,1782.536 3509.817,1819.738 3574.253,1782.536 3574.253,1708.132 3509.817,1670.929 	"/>
	
		<polygon points="
		3252.302,2042.951 3252.302,2117.355 3316.738,2154.557 3381.174,2117.355 3381.174,2042.951 3316.738,2005.749 	"/>
	
		<polygon points="
		3316.661,1931.344 3316.661,2005.749 3381.097,2042.951 3445.533,2005.749 3445.533,1931.344 3381.097,1894.142 	"/>
	
		<polygon points="
		3252.302,1819.738 3252.302,1894.142 3316.738,1931.344 3381.174,1894.142 3381.174,1819.738 3316.738,1782.536 	"/>
	
		<polygon points="
		3316.661,1708.132 3316.661,1782.536 3381.097,1819.738 3445.533,1782.536 3445.533,1708.132 3381.097,1670.929 	"/>
	
		<polygon points="
		3187.942,2377.77 3187.942,2452.175 3252.378,2489.377 3316.814,2452.175 3316.814,2377.77 3252.378,2340.568 	"/>
	
		<polygon points="
		3123.582,2266.164 3123.582,2340.568 3188.018,2377.77 3252.454,2340.568 3252.454,2266.164 3188.018,2228.962 	"/>
	
		<polygon points="
		3187.942,2154.557 3187.942,2228.962 3252.378,2266.164 3316.814,2228.962 3316.814,2154.557 3252.378,2117.355 	"/>
	
		<polygon points="
		3123.582,2042.951 3123.582,2117.355 3188.018,2154.557 3252.454,2117.355 3252.454,2042.951 3188.018,2005.749 	"/>
	
		<polygon points="
		3187.942,1931.344 3187.942,2005.749 3252.378,2042.951 3316.814,2005.749 3316.814,1931.344 3252.378,1894.142 	"/>
	
		<polygon points="
		3123.582,1819.738 3123.582,1894.142 3188.018,1931.344 3252.454,1894.142 3252.454,1819.738 3188.018,1782.536 	"/>
	
		<polygon points="
		3187.942,1708.132 3187.942,1782.536 3252.378,1819.738 3316.814,1782.536 3316.814,1708.132 3252.378,1670.929 	"/>
	
		<polygon points="
		3123.582,1596.525 3123.582,1670.929 3188.018,1708.132 3252.454,1670.929 3252.454,1596.525 3188.018,1559.323 	"/>
	
		<polygon points="
		2994.863,2489.377 2994.863,2563.781 3059.299,2600.983 3123.735,2563.781 3123.735,2489.377 3059.299,2452.175 	"/>
	
		<polygon points="
		3059.222,2377.77 3059.222,2452.175 3123.658,2489.377 3188.094,2452.175 3188.094,2377.77 3123.658,2340.568 	"/>
	
		<polygon points="
		2994.863,2266.164 2994.863,2340.568 3059.299,2377.77 3123.735,2340.568 3123.735,2266.164 3059.299,2228.962 	"/>
	
		<polygon points="
		3059.222,2154.557 3059.222,2228.962 3123.658,2266.164 3188.094,2228.962 3188.094,2154.557 3123.658,2117.355 	"/>
	
		<polygon points="
		2994.863,2042.951 2994.863,2117.355 3059.299,2154.557 3123.735,2117.355 3123.735,2042.951 3059.299,2005.749 	"/>
	
		<polygon points="
		3059.222,1931.344 3059.222,2005.749 3123.658,2042.951 3188.094,2005.749 3188.094,1931.344 3123.658,1894.142 	"/>
	
		<polygon points="
		2994.863,1819.738 2994.863,1894.142 3059.299,1931.344 3123.735,1894.142 3123.735,1819.738 3059.299,1782.536 	"/>
	
		<polygon points="
		3059.222,1708.132 3059.222,1782.536 3123.658,1819.738 3188.094,1782.536 3188.094,1708.132 3123.658,1670.929 	"/>
	
		<polygon points="
		2994.863,1596.525 2994.863,1670.929 3059.299,1708.132 3123.735,1670.929 3123.735,1596.525 3059.299,1559.323 	"/>
	
		<polygon points="
		3059.222,1484.919 3059.222,1559.323 3123.658,1596.525 3188.094,1559.323 3188.094,1484.919 3123.658,1447.716 	"/>
	
		<polygon points="
		2994.863,1373.312 2994.863,1447.716 3059.299,1484.919 3123.735,1447.716 3123.735,1373.312 3059.299,1336.11 	"/>
	
		<polygon points="
		2866.143,2489.377 2866.143,2563.781 2930.579,2600.983 2995.015,2563.781 2995.015,2489.377 2930.579,2452.175 	"/>
	
		<polygon points="
		2930.503,2377.77 2930.503,2452.175 2994.939,2489.377 3059.375,2452.175 3059.375,2377.77 2994.939,2340.568 	"/>
	
		<polygon points="
		2866.143,2266.164 2866.143,2340.568 2930.579,2377.77 2995.015,2340.568 2995.015,2266.164 2930.579,2228.962 	"/>
	
		<polygon points="
		2930.503,2154.557 2930.503,2228.962 2994.939,2266.164 3059.375,2228.962 3059.375,2154.557 2994.939,2117.355 	"/>
	
		<polygon points="
		2866.143,2042.951 2866.143,2117.355 2930.579,2154.557 2995.015,2117.355 2995.015,2042.951 2930.579,2005.749 	"/>
	
		<polygon points="
		2930.503,1931.344 2930.503,2005.749 2994.939,2042.951 3059.375,2005.749 3059.375,1931.344 2994.939,1894.142 	"/>
	
		<polygon points="
		2866.143,1819.738 2866.143,1894.142 2930.579,1931.344 2995.015,1894.142 2995.015,1819.738 2930.579,1782.536 	"/>
	
		<polygon points="
		2930.503,1708.132 2930.503,1782.536 2994.939,1819.738 3059.375,1782.536 3059.375,1708.132 2994.939,1670.929 	"/>
	
		<polygon points="
		2866.143,1596.525 2866.143,1670.929 2930.579,1708.132 2995.015,1670.929 2995.015,1596.525 2930.579,1559.323 	"/>
	
		<polygon points="
		2930.503,1484.919 2930.503,1559.323 2994.939,1596.525 3059.375,1559.323 3059.375,1484.919 2994.939,1447.716 	"/>
	
		<polygon points="
		2866.143,1373.312 2866.143,1447.716 2930.579,1484.919 2995.015,1447.716 2995.015,1373.312 2930.579,1336.11 	"/>
	
		<polygon points="
		2930.503,1261.706 2930.503,1336.11 2994.939,1373.312 3059.375,1336.11 3059.375,1261.706 2994.939,1224.504 	"/>
	
		<polygon points="
		2801.783,2377.77 2801.783,2452.175 2866.219,2489.377 2930.656,2452.175 2930.656,2377.77 2866.219,2340.568 	"/>
	
		<polygon points="
		2737.424,2266.164 2737.424,2340.568 2801.86,2377.77 2866.296,2340.568 2866.296,2266.164 2801.86,2228.962 	"/>
	
		<polygon points="
		2801.783,2154.557 2801.783,2228.962 2866.219,2266.164 2930.656,2228.962 2930.656,2154.557 2866.219,2117.355 	"/>
	
		<polygon points="
		2737.424,2042.951 2737.424,2117.355 2801.86,2154.557 2866.296,2117.355 2866.296,2042.951 2801.86,2005.749 	"/>
	
		<polygon points="
		2801.783,1931.344 2801.783,2005.749 2866.219,2042.951 2930.656,2005.749 2930.656,1931.344 2866.219,1894.142 	"/>
	
		<polygon points="
		2737.424,1819.738 2737.424,1894.142 2801.86,1931.344 2866.296,1894.142 2866.296,1819.738 2801.86,1782.536 	"/>
	
		<polygon points="
		2801.783,1708.132 2801.783,1782.536 2866.219,1819.738 2930.656,1782.536 2930.656,1708.132 2866.219,1670.929 	"/>
	
		<polygon points="
		2737.424,1596.525 2737.424,1670.929 2801.86,1708.132 2866.296,1670.929 2866.296,1596.525 2801.86,1559.323 	"/>
	
		<polygon points="
		2801.783,1484.919 2801.783,1559.323 2866.219,1596.525 2930.656,1559.323 2930.656,1484.919 2866.219,1447.716 	"/>
	
		<polygon points="
		2737.424,1373.312 2737.424,1447.716 2801.86,1484.919 2866.296,1447.716 2866.296,1373.312 2801.86,1336.11 	"/>
	
		<polygon points="
		2801.783,1261.706 2801.783,1336.11 2866.219,1373.312 2930.656,1336.11 2930.656,1261.706 2866.219,1224.504 	"/>
	
		<polygon points="
		2737.424,1150.099 2737.424,1224.504 2801.86,1261.706 2866.296,1224.504 2866.296,1150.099 2801.86,1112.897 	"/>
	
		<polygon points="
		2673.064,2154.557 2673.064,2228.962 2737.5,2266.164 2801.936,2228.962 2801.936,2154.557 2737.5,2117.355 	"/>
	
		<polygon points="
		2673.064,1931.344 2673.064,2005.749 2737.5,2042.951 2801.936,2005.749 2801.936,1931.344 2737.5,1894.142 	"/>
	
		<polygon points="
		2608.704,1819.738 2608.704,1894.142 2673.14,1931.344 2737.576,1894.142 2737.576,1819.738 2673.14,1782.536 	"/>
	
		<polygon points="
		2673.064,1708.132 2673.064,1782.536 2737.5,1819.738 2801.936,1782.536 2801.936,1708.132 2737.5,1670.929 	"/>
	
		<polygon points="
		2608.704,1596.525 2608.704,1670.929 2673.14,1708.132 2737.576,1670.929 2737.576,1596.525 2673.14,1559.323 	"/>
	
		<polygon points="
		2673.064,1484.919 2673.064,1559.323 2737.5,1596.525 2801.936,1559.323 2801.936,1484.919 2737.5,1447.716 	"/>
	
		<polygon points="
		2608.704,1373.312 2608.704,1447.716 2673.14,1484.919 2737.576,1447.716 2737.576,1373.312 2673.14,1336.11 	"/>
	
		<polygon points="
		2673.064,1261.706 2673.064,1336.11 2737.5,1373.312 2801.936,1336.11 2801.936,1261.706 2737.5,1224.504 	"/>
	
		<polygon points="
		2608.704,1150.099 2608.704,1224.504 2673.14,1261.706 2737.576,1224.504 2737.576,1150.099 2673.14,1112.897 	"/>
	
		<polygon points="
		2544.345,1708.132 2544.345,1782.536 2608.781,1819.738 2673.217,1782.536 2673.217,1708.132 2608.781,1670.929 	"/>
	
		<polygon points="
		2479.985,1596.525 2479.985,1670.929 2544.421,1708.132 2608.857,1670.929 2608.857,1596.525 2544.421,1559.323 	"/>
	
		<polygon points="
		2544.345,1484.919 2544.345,1559.323 2608.781,1596.525 2673.217,1559.323 2673.217,1484.919 2608.781,1447.716 	"/>
	
		<polygon points="
		2479.985,1373.312 2479.985,1447.716 2544.421,1484.919 2608.857,1447.716 2608.857,1373.312 2544.421,1336.11 	"/>
	
		<polygon points="
		2544.345,1261.706 2544.345,1336.11 2608.781,1373.312 2673.217,1336.11 2673.217,1261.706 2608.781,1224.504 	"/>
</g>
<g id="ON">
	
		<polygon points="
		2737.424,2489.377 2737.424,2563.781 2801.86,2600.983 2866.296,2563.781 2866.296,2489.377 2801.86,2452.175 	"/>
	
		<polygon points="
		2673.064,2600.983 2673.064,2675.387 2737.5,2712.59 2801.936,2675.387 2801.936,2600.983 2737.5,2563.781 	"/>
	
		<polygon points="
		2608.704,2489.377 2608.704,2563.781 2673.14,2600.983 2737.576,2563.781 2737.576,2489.377 2673.14,2452.175 	"/>
	
		<polygon points="
		2673.064,2377.77 2673.064,2452.175 2737.5,2489.377 2801.936,2452.175 2801.936,2377.77 2737.5,2340.568 	"/>
	
		<polygon points="
		2608.704,2266.164 2608.704,2340.568 2673.14,2377.77 2737.576,2340.568 2737.576,2266.164 2673.14,2228.962 	"/>
	
		<polygon points="
		2608.704,2042.951 2608.704,2117.355 2673.14,2154.557 2737.576,2117.355 2737.576,2042.951 2673.14,2005.749 	"/>
	
		<polygon points="
		2479.985,2489.377 2479.985,2563.781 2544.421,2600.983 2608.857,2563.781 2608.857,2489.377 2544.421,2452.175 	"/>
	
		<polygon points="
		2544.345,2377.77 2544.345,2452.175 2608.781,2489.377 2673.217,2452.175 2673.217,2377.77 2608.781,2340.568 	"/>
	
		<polygon points="
		2479.985,2266.164 2479.985,2340.568 2544.421,2377.77 2608.857,2340.568 2608.857,2266.164 2544.421,2228.962 	"/>
	
		<polygon points="
		2544.345,2154.557 2544.345,2228.962 2608.781,2266.164 2673.217,2228.962 2673.217,2154.557 2608.781,2117.355 	"/>
	
		<polygon points="
		2479.985,2042.951 2479.985,2117.355 2544.421,2154.557 2608.857,2117.355 2608.857,2042.951 2544.421,2005.749 	"/>
	
		<polygon points="
		2415.625,2377.77 2415.625,2452.175 2480.061,2489.377 2544.497,2452.175 2544.497,2377.77 2480.061,2340.568 	"/>
	
		<polygon points="
		2351.265,2266.164 2351.265,2340.568 2415.701,2377.77 2480.137,2340.568 2480.137,2266.164 2415.701,2228.962 	"/>
	
		<polygon points="
		2415.625,2154.557 2415.625,2228.962 2480.061,2266.164 2544.497,2228.962 2544.497,2154.557 2480.061,2117.355 	"/>
	
		<polygon points="
		2351.265,2042.951 2351.265,2117.355 2415.701,2154.557 2480.137,2117.355 2480.137,2042.951 2415.701,2005.749 	"/>
	
		<polygon points="
		2415.625,1931.344 2415.625,2005.749 2480.061,2042.951 2544.497,2005.749 2544.497,1931.344 2480.061,1894.142 	"/>
	
		<polygon points="
		2351.265,1819.738 2351.265,1894.142 2415.701,1931.344 2480.137,1894.142 2480.137,1819.738 2415.701,1782.536 	"/>
	
		<polygon points="
		2286.906,2377.77 2286.906,2452.175 2351.342,2489.377 2415.778,2452.175 2415.778,2377.77 2351.342,2340.568 	"/>
	
		<polygon points="
		2222.546,2266.164 2222.546,2340.568 2286.982,2377.77 2351.418,2340.568 2351.418,2266.164 2286.982,2228.962 	"/>
	
		<polygon points="
		2286.906,2154.557 2286.906,2228.962 2351.342,2266.164 2415.778,2228.962 2415.778,2154.557 2351.342,2117.355 	"/>
	
		<polygon points="
		2222.546,2042.951 2222.546,2117.355 2286.982,2154.557 2351.418,2117.355 2351.418,2042.951 2286.982,2005.749 	"/>
	
		<polygon points="
		2286.906,1931.344 2286.906,2005.749 2351.342,2042.951 2415.778,2005.749 2415.778,1931.344 2351.342,1894.142 	"/>
	
		<polygon points="
		2222.546,1819.738 2222.546,1894.142 2286.982,1931.344 2351.418,1894.142 2351.418,1819.738 2286.982,1782.536 	"/>
	
		<polygon points="
		2158.186,2377.77 2158.186,2452.175 2222.622,2489.377 2287.058,2452.175 2287.058,2377.77 2222.622,2340.568 	"/>
	
		<polygon points="
		2093.827,2266.164 2093.827,2340.568 2158.263,2377.77 2222.699,2340.568 2222.699,2266.164 2158.263,2228.962 	"/>
	
		<polygon points="
		2158.186,2154.557 2158.186,2228.962 2222.622,2266.164 2287.058,2228.962 2287.058,2154.557 2222.622,2117.355 	"/>
	
		<polygon points="
		2093.827,2042.951 2093.827,2117.355 2158.263,2154.557 2222.699,2117.355 2222.699,2042.951 2158.263,2005.749 	"/>
	
		<polygon points="
		2158.186,1931.344 2158.186,2005.749 2222.622,2042.951 2287.058,2005.749 2287.058,1931.344 2222.622,1894.142 	"/>
	
		<polygon points="
		2093.827,1819.738 2093.827,1894.142 2158.263,1931.344 2222.699,1894.142 2222.699,1819.738 2158.263,1782.536 	"/>
	
		<polygon points="
		2029.467,2377.77 2029.467,2452.175 2093.903,2489.377 2158.339,2452.175 2158.339,2377.77 2093.903,2340.568 	"/>
	
		<polygon points="
		1965.107,2266.164 1965.107,2340.568 2029.543,2377.77 2093.979,2340.568 2093.979,2266.164 2029.543,2228.962 	"/>
	
		<polygon points="
		2029.467,2154.557 2029.467,2228.962 2093.903,2266.164 2158.339,2228.962 2158.339,2154.557 2093.903,2117.355 	"/>
	
		<polygon points="
		1965.107,2042.951 1965.107,2117.355 2029.543,2154.557 2093.979,2117.355 2093.979,2042.951 2029.543,2005.749 	"/>
	
		<polygon points="
		2029.467,1931.344 2029.467,2005.749 2093.903,2042.951 2158.339,2005.749 2158.339,1931.344 2093.903,1894.142 	"/>
	
		<polygon points="
		1900.747,2377.77 1900.747,2452.175 1965.183,2489.377 2029.62,2452.175 2029.62,2377.77 1965.183,2340.568 	"/>
	
		<polygon points="
		1900.747,2154.557 1900.747,2228.962 1965.183,2266.164 2029.62,2228.962 2029.62,2154.557 1965.183,2117.355 	"/>
</g>
<g id="MB">
	
		<polygon points="
		1965.107,1819.738 1965.107,1894.142 2029.543,1931.344 2093.979,1894.142 2093.979,1819.738 2029.543,1782.536 	"/>
	
		<polygon points="
		2029.467,1708.132 2029.467,1782.536 2093.903,1819.738 2158.339,1782.536 2158.339,1708.132 2093.903,1670.929 	"/>
	
		<polygon points="
		1965.107,1596.525 1965.107,1670.929 2029.543,1708.132 2093.979,1670.929 2093.979,1596.525 2029.543,1559.323 	"/>
	
		<polygon points="
		1836.388,2266.164 1836.388,2340.568 1900.824,2377.77 1965.26,2340.568 1965.26,2266.164 1900.824,2228.962 	"/>
	
		<polygon points="
		1836.388,2042.951 1836.388,2117.355 1900.824,2154.557 1965.26,2117.355 1965.26,2042.951 1900.824,2005.749 	"/>
	
		<polygon points="
		1900.747,1931.344 1900.747,2005.749 1965.183,2042.951 2029.62,2005.749 2029.62,1931.344 1965.183,1894.142 	"/>
	
		<polygon points="
		1836.388,1819.738 1836.388,1894.142 1900.824,1931.344 1965.26,1894.142 1965.26,1819.738 1900.824,1782.536 	"/>
	
		<polygon points="
		1900.747,1708.132 1900.747,1782.536 1965.183,1819.738 2029.62,1782.536 2029.62,1708.132 1965.183,1670.929 	"/>
	
		<polygon points="
		1836.388,1596.525 1836.388,1670.929 1900.824,1708.132 1965.26,1670.929 1965.26,1596.525 1900.824,1559.323 	"/>
	
		<polygon points="
		1772.028,2377.77 1772.028,2452.175 1836.464,2489.377 1900.9,2452.175 1900.9,2377.77 1836.464,2340.568 	"/>
	
		<polygon points="
		1707.668,2266.164 1707.668,2340.568 1772.104,2377.77 1836.54,2340.568 1836.54,2266.164 1772.104,2228.962 	"/>
	
		<polygon points="
		1772.028,2154.557 1772.028,2228.962 1836.464,2266.164 1900.9,2228.962 1900.9,2154.557 1836.464,2117.355 	"/>
	
		<polygon points="
		1707.668,2042.951 1707.668,2117.355 1772.104,2154.557 1836.54,2117.355 1836.54,2042.951 1772.104,2005.749 	"/>
	
		<polygon points="
		1772.028,1931.344 1772.028,2005.749 1836.464,2042.951 1900.9,2005.749 1900.9,1931.344 1836.464,1894.142 	"/>
	
		<polygon points="
		1707.668,1819.738 1707.668,1894.142 1772.104,1931.344 1836.54,1894.142 1836.54,1819.738 1772.104,1782.536 	"/>
	
		<polygon points="
		1772.028,1708.132 1772.028,1782.536 1836.464,1819.738 1900.9,1782.536 1900.9,1708.132 1836.464,1670.929 	"/>
	
		<polygon points="
		1707.668,1596.525 1707.668,1670.929 1772.104,1708.132 1836.54,1670.929 1836.54,1596.525 1772.104,1559.323 	"/>
	
		<polygon points="
		1772.028,1484.919 1772.028,1559.323 1836.464,1596.525 1900.9,1559.323 1900.9,1484.919 1836.464,1447.716 	"/>
	
		<polygon points="
		1643.309,2377.77 1643.309,2452.175 1707.745,2489.377 1772.181,2452.175 1772.181,2377.77 1707.745,2340.568 	"/>
	
		<polygon points="
		1578.949,2266.164 1578.949,2340.568 1643.385,2377.77 1707.821,2340.568 1707.821,2266.164 1643.385,2228.962 	"/>
	
		<polygon points="
		1643.309,2154.557 1643.309,2228.962 1707.745,2266.164 1772.181,2228.962 1772.181,2154.557 1707.745,2117.355 	"/>
	
		<polygon points="
		1578.949,2042.951 1578.949,2117.355 1643.385,2154.557 1707.821,2117.355 1707.821,2042.951 1643.385,2005.749 	"/>
	
		<polygon points="
		1643.309,1931.344 1643.309,2005.749 1707.745,2042.951 1772.181,2005.749 1772.181,1931.344 1707.745,1894.142 	"/>
	
		<polygon points="
		1578.949,1819.738 1578.949,1894.142 1643.385,1931.344 1707.821,1894.142 1707.821,1819.738 1643.385,1782.536 	"/>
	
		<polygon points="
		1643.309,1708.132 1643.309,1782.536 1707.745,1819.738 1772.181,1782.536 1772.181,1708.132 1707.745,1670.929 	"/>
	
		<polygon points="
		1578.949,1596.525 1578.949,1670.929 1643.385,1708.132 1707.821,1670.929 1707.821,1596.525 1643.385,1559.323 	"/>
	
		<polygon points="
		1643.309,1484.919 1643.309,1559.323 1707.745,1596.525 1772.181,1559.323 1772.181,1484.919 1707.745,1447.716 	"/>
	
		<polygon points="
		1514.589,2377.77 1514.589,2452.175 1579.025,2489.377 1643.461,2452.175 1643.461,2377.77 1579.025,2340.568 	"/>
</g>
<g id="SK">
	
		<polygon points="
		1450.229,2266.164 1450.229,2340.568 1514.665,2377.77 1579.101,2340.568 1579.101,2266.164 1514.665,2228.962 	"/>
	
		<polygon points="
		1514.589,2154.557 1514.589,2228.962 1579.025,2266.164 1643.461,2228.962 1643.461,2154.557 1579.025,2117.355 	"/>
	
		<polygon points="
		1450.229,2042.951 1450.229,2117.355 1514.665,2154.557 1579.101,2117.355 1579.101,2042.951 1514.665,2005.749 	"/>
	
		<polygon points="
		1514.589,1931.344 1514.589,2005.749 1579.025,2042.951 1643.461,2005.749 1643.461,1931.344 1579.025,1894.142 	"/>
	
		<polygon points="
		1450.229,1819.738 1450.229,1894.142 1514.665,1931.344 1579.101,1894.142 1579.101,1819.738 1514.665,1782.536 	"/>
	
		<polygon points="
		1514.589,1708.132 1514.589,1782.536 1579.025,1819.738 1643.461,1782.536 1643.461,1708.132 1579.025,1670.929 	"/>
	
		<polygon points="
		1450.229,1596.525 1450.229,1670.929 1514.665,1708.132 1579.101,1670.929 1579.101,1596.525 1514.665,1559.323 	"/>
	
		<polygon points="
		1514.589,1484.919 1514.589,1559.323 1579.025,1596.525 1643.461,1559.323 1643.461,1484.919 1579.025,1447.716 	"/>
	
		<polygon points="
		1385.87,2377.77 1385.87,2452.175 1450.306,2489.377 1514.742,2452.175 1514.742,2377.77 1450.306,2340.568 	"/>
	
		<polygon points="
		1321.51,2266.164 1321.51,2340.568 1385.946,2377.77 1450.382,2340.568 1450.382,2266.164 1385.946,2228.962 	"/>
	
		<polygon points="
		1385.87,2154.557 1385.87,2228.962 1450.306,2266.164 1514.742,2228.962 1514.742,2154.557 1450.306,2117.355 	"/>
	
		<polygon points="
		1321.51,2042.951 1321.51,2117.355 1385.946,2154.557 1450.382,2117.355 1450.382,2042.951 1385.946,2005.749 	"/>
	
		<polygon points="
		1385.87,1931.344 1385.87,2005.749 1450.306,2042.951 1514.742,2005.749 1514.742,1931.344 1450.306,1894.142 	"/>
	
		<polygon points="
		1321.51,1819.738 1321.51,1894.142 1385.946,1931.344 1450.382,1894.142 1450.382,1819.738 1385.946,1782.536 	"/>
	
		<polygon points="
		1385.87,1708.132 1385.87,1782.536 1450.306,1819.738 1514.742,1782.536 1514.742,1708.132 1450.306,1670.929 	"/>
	
		<polygon points="
		1321.51,1596.525 1321.51,1670.929 1385.946,1708.132 1450.382,1670.929 1450.382,1596.525 1385.946,1559.323 	"/>
	
		<polygon points="
		1385.87,1484.919 1385.87,1559.323 1450.306,1596.525 1514.742,1559.323 1514.742,1484.919 1450.306,1447.716 	"/>
	
		<polygon points="
		1257.15,2377.77 1257.15,2452.175 1321.586,2489.377 1386.022,2452.175 1386.022,2377.77 1321.586,2340.568 	"/>
	
		<polygon points="
		1192.791,2266.164 1192.791,2340.568 1257.227,2377.77 1321.663,2340.568 1321.663,2266.164 1257.227,2228.962 	"/>
	
		<polygon points="
		1257.15,2154.557 1257.15,2228.962 1321.586,2266.164 1386.022,2228.962 1386.022,2154.557 1321.586,2117.355 	"/>
	
		<polygon points="
		1192.791,2042.951 1192.791,2117.355 1257.227,2154.557 1321.663,2117.355 1321.663,2042.951 1257.227,2005.749 	"/>
	
		<polygon points="
		1257.15,1931.344 1257.15,2005.749 1321.586,2042.951 1386.022,2005.749 1386.022,1931.344 1321.586,1894.142 	"/>
	
		<polygon points="
		1192.791,1819.738 1192.791,1894.142 1257.227,1931.344 1321.663,1894.142 1321.663,1819.738 1257.227,1782.536 	"/>
	
		<polygon points="
		1257.15,1708.132 1257.15,1782.536 1321.586,1819.738 1386.022,1782.536 1386.022,1708.132 1321.586,1670.929 	"/>
	
		<polygon points="
		1192.791,1596.525 1192.791,1670.929 1257.227,1708.132 1321.663,1670.929 1321.663,1596.525 1257.227,1559.323 	"/>
	
		<polygon points="
		1257.15,1484.919 1257.15,1559.323 1321.586,1596.525 1386.022,1559.323 1386.022,1484.919 1321.586,1447.716 	"/>
	
		<polygon points="
		1128.431,2377.77 1128.431,2452.175 1192.867,2489.377 1257.303,2452.175 1257.303,2377.77 1192.867,2340.568 	"/>
	
		<polygon points="
		1064.071,2266.164 1064.071,2340.568 1128.507,2377.77 1192.943,2340.568 1192.943,2266.164 1128.507,2228.962 	"/>
	
		<polygon points="
		1128.431,2154.557 1128.431,2228.962 1192.867,2266.164 1257.303,2228.962 1257.303,2154.557 1192.867,2117.355 	"/>
</g>
<g id="NU">
	
		<polygon points="
		2351.265,1150.099 2351.265,1224.504 2415.701,1261.706 2480.137,1224.504 2480.137,1150.099 2415.701,1112.897 	"/>
	
		<polygon points="
		2222.546,1150.099 2222.546,1224.504 2286.982,1261.706 2351.418,1224.504 2351.418,1150.099 2286.982,1112.897 	"/>
	
		<polygon points="
		2286.906,1038.493 2286.906,1112.897 2351.342,1150.099 2415.778,1112.897 2415.778,1038.493 2351.342,1001.291 	"/>
	
		<polygon points="
		2222.546,926.886 2222.546,1001.291 2286.982,1038.493 2351.418,1001.291 2351.418,926.886 2286.982,889.684 	"/>
	
		<polygon points="
		2093.827,1150.099 2093.827,1224.504 2158.263,1261.706 2222.699,1224.504 2222.699,1150.099 2158.263,1112.897 	"/>
	
		<polygon points="
		2158.186,1038.493 2158.186,1112.897 2222.622,1150.099 2287.058,1112.897 2287.058,1038.493 2222.622,1001.291 	"/>
	
		<polygon points="
		2093.827,926.886 2093.827,1001.291 2158.263,1038.493 2222.699,1001.291 2222.699,926.886 2158.263,889.684 	"/>
	
		<polygon points="
		2158.186,815.28 2158.186,889.684 2222.622,926.886 2287.058,889.684 2287.058,815.28 2222.622,778.078 	"/>
	
		<polygon points="
		2093.827,703.673 2093.827,778.078 2158.263,815.28 2222.699,778.078 2222.699,703.673 2158.263,666.471 	"/>
	
		<polygon points="
		1965.107,1150.099 1965.107,1224.504 2029.543,1261.706 2093.979,1224.504 2093.979,1150.099 2029.543,1112.897 	"/>
	
		<polygon points="
		2029.467,1038.493 2029.467,1112.897 2093.903,1150.099 2158.339,1112.897 2158.339,1038.493 2093.903,1001.291 	"/>
	
		<polygon points="
		1965.107,926.886 1965.107,1001.291 2029.543,1038.493 2093.979,1001.291 2093.979,926.886 2029.543,889.684 	"/>
	
		<polygon points="
		2029.467,815.28 2029.467,889.684 2093.903,926.886 2158.339,889.684 2158.339,815.28 2093.903,778.078 	"/>
	
		<polygon points="
		1965.107,703.673 1965.107,778.078 2029.543,815.28 2093.979,778.078 2093.979,703.673 2029.543,666.471 	"/>
	
		<polygon points="
		2029.467,592.067 2029.467,666.471 2093.903,703.673 2158.339,666.471 2158.339,592.067 2093.903,554.865 	"/>
	
		<polygon points="
		1965.107,480.461 1965.107,554.865 2029.543,592.067 2093.979,554.865 2093.979,480.461 2029.543,443.258 	"/>
	
		<polygon points="
		1836.388,1373.312 1836.388,1447.716 1900.824,1484.919 1965.26,1447.716 1965.26,1373.312 1900.824,1336.11 	"/>
	
		<polygon points="
		1900.747,1261.706 1900.747,1336.11 1965.183,1373.312 2029.62,1336.11 2029.62,1261.706 1965.183,1224.504 	"/>
	
		<polygon points="
		1836.388,1150.099 1836.388,1224.504 1900.824,1261.706 1965.26,1224.504 1965.26,1150.099 1900.824,1112.897 	"/>
	
		<polygon points="
		1900.747,1038.493 1900.747,1112.897 1965.183,1150.099 2029.62,1112.897 2029.62,1038.493 1965.183,1001.291 	"/>
	
		<polygon points="
		1836.388,926.886 1836.388,1001.291 1900.824,1038.493 1965.26,1001.291 1965.26,926.886 1900.824,889.684 	"/>
	
		<polygon points="
		1900.747,815.28 1900.747,889.684 1965.183,926.886 2029.62,889.684 2029.62,815.28 1965.183,778.078 	"/>
	
		<polygon points="
		1836.388,703.673 1836.388,778.078 1900.824,815.28 1965.26,778.078 1965.26,703.673 1900.824,666.471 	"/>
	
		<polygon points="
		1900.747,592.067 1900.747,666.471 1965.183,703.673 2029.62,666.471 2029.62,592.067 1965.183,554.865 	"/>
	
		<polygon points="
		1836.388,480.461 1836.388,554.865 1900.824,592.067 1965.26,554.865 1965.26,480.461 1900.824,443.258 	"/>
	
		<polygon points="
		1707.668,1373.312 1707.668,1447.716 1772.104,1484.919 1836.54,1447.716 1836.54,1373.312 1772.104,1336.11 	"/>
	
		<polygon points="
		1772.028,1261.706 1772.028,1336.11 1836.464,1373.312 1900.9,1336.11 1900.9,1261.706 1836.464,1224.504 	"/>
	
		<polygon points="
		1707.668,1150.099 1707.668,1224.504 1772.104,1261.706 1836.54,1224.504 1836.54,1150.099 1772.104,1112.897 	"/>
	
		<polygon points="
		1772.028,1038.493 1772.028,1112.897 1836.464,1150.099 1900.9,1112.897 1900.9,1038.493 1836.464,1001.291 	"/>
	
		<polygon points="
		1707.668,926.886 1707.668,1001.291 1772.104,1038.493 1836.54,1001.291 1836.54,926.886 1772.104,889.684 	"/>
	
		<polygon points="
		1772.028,815.28 1772.028,889.684 1836.464,926.886 1900.9,889.684 1900.9,815.28 1836.464,778.078 	"/>
	
		<polygon points="
		1707.668,703.673 1707.668,778.078 1772.104,815.28 1836.54,778.078 1836.54,703.673 1772.104,666.471 	"/>
	
		<polygon points="
		1772.028,592.067 1772.028,666.471 1836.464,703.673 1900.9,666.471 1900.9,592.067 1836.464,554.865 	"/>
	
		<polygon points="
		1707.668,480.461 1707.668,554.865 1772.104,592.067 1836.54,554.865 1836.54,480.461 1772.104,443.258 	"/>
	
		<polygon points="
		1578.949,1373.312 1578.949,1447.716 1643.385,1484.919 1707.821,1447.716 1707.821,1373.312 1643.385,1336.11 	"/>
	
		<polygon points="
		1643.309,1261.706 1643.309,1336.11 1707.745,1373.312 1772.181,1336.11 1772.181,1261.706 1707.745,1224.504 	"/>
	
		<polygon points="
		1578.949,1150.099 1578.949,1224.504 1643.385,1261.706 1707.821,1224.504 1707.821,1150.099 1643.385,1112.897 	"/>
	
		<polygon points="
		1643.309,1038.493 1643.309,1112.897 1707.745,1150.099 1772.181,1112.897 1772.181,1038.493 1707.745,1001.291 	"/>
	
		<polygon points="
		1578.949,926.886 1578.949,1001.291 1643.385,1038.493 1707.821,1001.291 1707.821,926.886 1643.385,889.684 	"/>
	
		<polygon points="
		1643.309,815.28 1643.309,889.684 1707.745,926.886 1772.181,889.684 1772.181,815.28 1707.745,778.078 	"/>
	
		<polygon points="
		1578.949,703.673 1578.949,778.078 1643.385,815.28 1707.821,778.078 1707.821,703.673 1643.385,666.471 	"/>
	
		<polygon points="
		1643.309,592.067 1643.309,666.471 1707.745,703.673 1772.181,666.471 1772.181,592.067 1707.745,554.865 	"/>
	
		<polygon points="
		1578.949,480.461 1578.949,554.865 1643.385,592.067 1707.821,554.865 1707.821,480.461 1643.385,443.258 	"/>
	
		<polygon points="
		1643.309,368.854 1643.309,443.258 1707.745,480.461 1772.181,443.258 1772.181,368.854 1707.745,331.652 	"/>
	
		<polygon points="
		1514.589,1038.493 1514.589,1112.897 1579.025,1150.099 1643.461,1112.897 1643.461,1038.493 1579.025,1001.291 	"/>
	
		<polygon points="
		1450.229,926.886 1450.229,1001.291 1514.665,1038.493 1579.101,1001.291 1579.101,926.886 1514.665,889.684 	"/>
	
		<polygon points="
		1514.589,815.28 1514.589,889.684 1579.025,926.886 1643.461,889.684 1643.461,815.28 1579.025,778.078 	"/>
	
		<polygon points="
		1450.229,703.673 1450.229,778.078 1514.665,815.28 1579.101,778.078 1579.101,703.673 1514.665,666.471 	"/>
	
		<polygon points="
		1514.589,592.067 1514.589,666.471 1579.025,703.673 1643.461,666.471 1643.461,592.067 1579.025,554.865 	"/>
	
		<polygon points="
		1450.229,480.461 1450.229,554.865 1514.665,592.067 1579.101,554.865 1579.101,480.461 1514.665,443.258 	"/>
	
		<polygon points="
		1514.589,368.854 1514.589,443.258 1579.025,480.461 1643.461,443.258 1643.461,368.854 1579.025,331.652 	"/>
	
		<polygon points="
		1450.229,257.248 1450.229,331.652 1514.665,368.854 1579.101,331.652 1579.101,257.248 1514.665,220.046 	"/>
	
		<polygon points="
		1321.51,926.886 1321.51,1001.291 1385.946,1038.493 1450.382,1001.291 1450.382,926.886 1385.946,889.684 	"/>
	
		<polygon points="
		1385.87,815.28 1385.87,889.684 1450.306,926.886 1514.742,889.684 1514.742,815.28 1450.306,778.078 	"/>
	
		<polygon points="
		1321.51,703.673 1321.51,778.078 1385.946,815.28 1450.382,778.078 1450.382,703.673 1385.946,666.471 	"/>
	
		<polygon points="
		1385.87,592.067 1385.87,666.471 1450.306,703.673 1514.742,666.471 1514.742,592.067 1450.306,554.865 	"/>
	
		<polygon points="
		1321.51,480.461 1321.51,554.865 1385.946,592.067 1450.382,554.865 1450.382,480.461 1385.946,443.258 	"/>
	
		<polygon points="
		1385.87,368.854 1385.87,443.258 1450.306,480.461 1514.742,443.258 1514.742,368.854 1450.306,331.652 	"/>
	
		<polygon points="
		1321.51,257.248 1321.51,331.652 1385.946,368.854 1450.382,331.652 1450.382,257.248 1385.946,220.046 	"/>
	
		<polygon points="
		1257.15,815.28 1257.15,889.684 1321.586,926.886 1386.022,889.684 1386.022,815.28 1321.586,778.078 	"/>
	
		<polygon points="
		1257.15,592.067 1257.15,666.471 1321.586,703.673 1386.022,666.471 1386.022,592.067 1321.586,554.865 	"/>
	
		<polygon points="
		1192.791,480.461 1192.791,554.865 1257.227,592.067 1321.663,554.865 1321.663,480.461 1257.227,443.258 	"/>
	
		<polygon points="
		1257.15,368.854 1257.15,443.258 1321.586,480.461 1386.022,443.258 1386.022,368.854 1321.586,331.652 	"/>
	
		<polygon points="
		1192.791,257.248 1192.791,331.652 1257.227,368.854 1321.663,331.652 1321.663,257.248 1257.227,220.046 	"/>
	
		<polygon points="
		1128.431,368.854 1128.431,443.258 1192.867,480.461 1257.303,443.258 1257.303,368.854 1192.867,331.652 	"/>
</g>
<g id="AB">
	
		<polygon points="
		1064.071,2042.951 1064.071,2117.355 1128.507,2154.557 1192.943,2117.355 1192.943,2042.951 1128.507,2005.749 	"/>
	
		<polygon points="
		1128.431,1931.344 1128.431,2005.749 1192.867,2042.951 1257.303,2005.749 1257.303,1931.344 1192.867,1894.142 	"/>
	
		<polygon points="
		1064.071,1819.738 1064.071,1894.142 1128.507,1931.344 1192.943,1894.142 1192.943,1819.738 1128.507,1782.536 	"/>
	
		<polygon points="
		1128.431,1708.132 1128.431,1782.536 1192.867,1819.738 1257.303,1782.536 1257.303,1708.132 1192.867,1670.929 	"/>
	
		<polygon points="
		1064.071,1596.525 1064.071,1670.929 1128.507,1708.132 1192.943,1670.929 1192.943,1596.525 1128.507,1559.323 	"/>
	
		<polygon points="
		1128.431,1484.919 1128.431,1559.323 1192.867,1596.525 1257.303,1559.323 1257.303,1484.919 1192.867,1447.716 	"/>
	
		<polygon points="
		1064.071,1373.312 1064.071,1447.716 1128.507,1484.919 1192.943,1447.716 1192.943,1373.312 1128.507,1336.11 	"/>
	
		<polygon points="
		935.352,2266.164 935.352,2340.568 999.788,2377.77 1064.224,2340.568 1064.224,2266.164 999.788,2228.962 	"/>
	
		<polygon points="
		999.711,2154.557 999.711,2228.962 1064.147,2266.164 1128.583,2228.962 1128.583,2154.557 1064.147,2117.355 	"/>
	
		<polygon points="
		935.352,2042.951 935.352,2117.355 999.788,2154.557 1064.224,2117.355 1064.224,2042.951 999.788,2005.749 	"/>
	
		<polygon points="
		999.711,1931.344 999.711,2005.749 1064.147,2042.951 1128.583,2005.749 1128.583,1931.344 1064.147,1894.142 	"/>
	
		<polygon points="
		935.352,1819.738 935.352,1894.142 999.788,1931.344 1064.224,1894.142 1064.224,1819.738 999.788,1782.536 	"/>
	
		<polygon points="
		999.711,1708.132 999.711,1782.536 1064.147,1819.738 1128.583,1782.536 1128.583,1708.132 1064.147,1670.929 	"/>
	
		<polygon points="
		935.352,1596.525 935.352,1670.929 999.788,1708.132 1064.224,1670.929 1064.224,1596.525 999.788,1559.323 	"/>
	
		<polygon points="
		999.711,1484.919 999.711,1559.323 1064.147,1596.525 1128.583,1559.323 1128.583,1484.919 1064.147,1447.716 	"/>
	
		<polygon points="
		935.352,1373.312 935.352,1447.716 999.788,1484.919 1064.224,1447.716 1064.224,1373.312 999.788,1336.11 	"/>
	
		<polygon points="
		806.632,2266.164 806.632,2340.568 871.068,2377.77 935.504,2340.568 935.504,2266.164 871.068,2228.962 	"/>
	
		<polygon points="
		870.992,2154.557 870.992,2228.962 935.428,2266.164 999.864,2228.962 999.864,2154.557 935.428,2117.355 	"/>
	
		<polygon points="
		806.632,2042.951 806.632,2117.355 871.068,2154.557 935.504,2117.355 935.504,2042.951 871.068,2005.749 	"/>
	
		<polygon points="
		870.992,1931.344 870.992,2005.749 935.428,2042.951 999.864,2005.749 999.864,1931.344 935.428,1894.142 	"/>
	
		<polygon points="
		806.632,1819.738 806.632,1894.142 871.068,1931.344 935.504,1894.142 935.504,1819.738 871.068,1782.536 	"/>
	
		<polygon points="
		870.992,1708.132 870.992,1782.536 935.428,1819.738 999.864,1782.536 999.864,1708.132 935.428,1670.929 	"/>
	
		<polygon points="
		806.632,1596.525 806.632,1670.929 871.068,1708.132 935.504,1670.929 935.504,1596.525 871.068,1559.323 	"/>
	
		<polygon points="
		870.992,1484.919 870.992,1559.323 935.428,1596.525 999.864,1559.323 999.864,1484.919 935.428,1447.716 	"/>
	
		<polygon points="
		742.272,1931.344 742.272,2005.749 806.708,2042.951 871.145,2005.749 871.145,1931.344 806.708,1894.142 	"/>
	
		<polygon points="
		742.272,1708.132 742.272,1782.536 806.708,1819.738 871.145,1782.536 871.145,1708.132 806.708,1670.929 	"/>
</g>
<g id="NT">
	
		<polygon points="
		1450.229,1373.312 1450.229,1447.716 1514.665,1484.919 1579.101,1447.716 1579.101,1373.312 1514.665,1336.11 	"/>
	
		<polygon points="
		1514.589,1261.706 1514.589,1336.11 1579.025,1373.312 1643.461,1336.11 1643.461,1261.706 1579.025,1224.504 	"/>
	
		<polygon points="
		1450.229,1150.099 1450.229,1224.504 1514.665,1261.706 1579.101,1224.504 1579.101,1150.099 1514.665,1112.897 	"/>
	
		<polygon points="
		1321.51,1373.312 1321.51,1447.716 1385.946,1484.919 1450.382,1447.716 1450.382,1373.312 1385.946,1336.11 	"/>
	
		<polygon points="
		1385.87,1261.706 1385.87,1336.11 1450.306,1373.312 1514.742,1336.11 1514.742,1261.706 1450.306,1224.504 	"/>
	
		<polygon points="
		1321.51,1150.099 1321.51,1224.504 1385.946,1261.706 1450.382,1224.504 1450.382,1150.099 1385.946,1112.897 	"/>
	
		<polygon points="
		1385.87,1038.493 1385.87,1112.897 1450.306,1150.099 1514.742,1112.897 1514.742,1038.493 1450.306,1001.291 	"/>
	
		<polygon points="
		1192.791,1373.312 1192.791,1447.716 1257.227,1484.919 1321.663,1447.716 1321.663,1373.312 1257.227,1336.11 	"/>
	
		<polygon points="
		1257.15,1261.706 1257.15,1336.11 1321.586,1373.312 1386.022,1336.11 1386.022,1261.706 1321.586,1224.504 	"/>
	
		<polygon points="
		1192.791,1150.099 1192.791,1224.504 1257.227,1261.706 1321.663,1224.504 1321.663,1150.099 1257.227,1112.897 	"/>
	
		<polygon points="
		1257.15,1038.493 1257.15,1112.897 1321.586,1150.099 1386.022,1112.897 1386.022,1038.493 1321.586,1001.291 	"/>
	
		<polygon points="
		1192.791,926.886 1192.791,1001.291 1257.227,1038.493 1321.663,1001.291 1321.663,926.886 1257.227,889.684 	"/>
	
		<polygon points="
		1192.791,703.673 1192.791,778.078 1257.227,815.28 1321.663,778.078 1321.663,703.673 1257.227,666.471 	"/>
	
		<polygon points="
		1128.431,1261.706 1128.431,1336.11 1192.867,1373.312 1257.303,1336.11 1257.303,1261.706 1192.867,1224.504 	"/>
	
		<polygon points="
		1064.071,1150.099 1064.071,1224.504 1128.507,1261.706 1192.943,1224.504 1192.943,1150.099 1128.507,1112.897 	"/>
	
		<polygon points="
		1128.431,1038.493 1128.431,1112.897 1192.867,1150.099 1257.303,1112.897 1257.303,1038.493 1192.867,1001.291 	"/>
	
		<polygon points="
		1064.071,926.886 1064.071,1001.291 1128.507,1038.493 1192.943,1001.291 1192.943,926.886 1128.507,889.684 	"/>
	
		<polygon points="
		1128.431,815.28 1128.431,889.684 1192.867,926.886 1257.303,889.684 1257.303,815.28 1192.867,778.078 	"/>
	
		<polygon points="
		1064.071,703.673 1064.071,778.078 1128.507,815.28 1192.943,778.078 1192.943,703.673 1128.507,666.471 	"/>
	
		<polygon points="
		1128.431,592.067 1128.431,666.471 1192.867,703.673 1257.303,666.471 1257.303,592.067 1192.867,554.865 	"/>
	
		<polygon points="
		1064.071,480.461 1064.071,554.865 1128.507,592.067 1192.943,554.865 1192.943,480.461 1128.507,443.258 	"/>
	
		<polygon points="
		999.711,1261.706 999.711,1336.11 1064.147,1373.312 1128.583,1336.11 1128.583,1261.706 1064.147,1224.504 	"/>
	
		<polygon points="
		935.352,1150.099 935.352,1224.504 999.788,1261.706 1064.224,1224.504 1064.224,1150.099 999.788,1112.897 	"/>
	
		<polygon points="
		999.711,1038.493 999.711,1112.897 1064.147,1150.099 1128.583,1112.897 1128.583,1038.493 1064.147,1001.291 	"/>
	
		<polygon points="
		935.352,926.886 935.352,1001.291 999.788,1038.493 1064.224,1001.291 1064.224,926.886 999.788,889.684 	"/>
	
		<polygon points="
		999.711,815.28 999.711,889.684 1064.147,926.886 1128.583,889.684 1128.583,815.28 1064.147,778.078 	"/>
	
		<polygon points="
		935.352,703.673 935.352,778.078 999.788,815.28 1064.224,778.078 1064.224,703.673 999.788,666.471 	"/>
	
		<polygon points="
		999.711,592.067 999.711,666.471 1064.147,703.673 1128.583,666.471 1128.583,592.067 1064.147,554.865 	"/>
	
		<polygon points="
		935.352,480.461 935.352,554.865 999.788,592.067 1064.224,554.865 1064.224,480.461 999.788,443.258 	"/>
	
		<polygon points="
		999.711,368.854 999.711,443.258 1064.147,480.461 1128.583,443.258 1128.583,368.854 1064.147,331.652 	"/>
	
		<polygon points="
		870.992,1261.706 870.992,1336.11 935.428,1373.312 999.864,1336.11 999.864,1261.706 935.428,1224.504 	"/>
	
		<polygon points="
		806.632,1150.099 806.632,1224.504 871.068,1261.706 935.504,1224.504 935.504,1150.099 871.068,1112.897 	"/>
	
		<polygon points="
		870.992,1038.493 870.992,1112.897 935.428,1150.099 999.864,1112.897 999.864,1038.493 935.428,1001.291 	"/>
	
		<polygon points="
		806.632,926.886 806.632,1001.291 871.068,1038.493 935.504,1001.291 935.504,926.886 871.068,889.684 	"/>
	
		<polygon points="
		870.992,815.28 870.992,889.684 935.428,926.886 999.864,889.684 999.864,815.28 935.428,778.078 	"/>
	
		<polygon points="
		806.632,703.673 806.632,778.078 871.068,815.28 935.504,778.078 935.504,703.673 871.068,666.471 	"/>
	
		<polygon points="
		870.992,592.067 870.992,666.471 935.428,703.673 999.864,666.471 999.864,592.067 935.428,554.865 	"/>
	
		<polygon points="
		806.632,480.461 806.632,554.865 871.068,592.067 935.504,554.865 935.504,480.461 871.068,443.258 	"/>
	
		<polygon points="
		870.992,368.854 870.992,443.258 935.428,480.461 999.864,443.258 999.864,368.854 935.428,331.652 	"/>
	
		<polygon points="
		742.272,1038.493 742.272,1112.897 806.708,1150.099 871.145,1112.897 871.145,1038.493 806.708,1001.291 	"/>
	
		<polygon points="
		742.272,815.28 742.272,889.684 806.708,926.886 871.145,889.684 871.145,815.28 806.708,778.078 	"/>
	
		<polygon points="
		742.272,592.067 742.272,666.471 806.708,703.673 871.145,666.471 871.145,592.067 806.708,554.865 	"/>
</g>
<g id="BC">
	
		<polygon points="
		806.632,1373.312 806.632,1447.716 871.068,1484.919 935.504,1447.716 935.504,1373.312 871.068,1336.11 	"/>
	
		<polygon points="
		742.272,2154.557 742.272,2228.962 806.708,2266.164 871.145,2228.962 871.145,2154.557 806.708,2117.355 	"/>
	
		<polygon points="
		677.913,2042.951 677.913,2117.355 742.349,2154.557 806.785,2117.355 806.785,2042.951 742.349,2005.749 	"/>
	
		<polygon points="
		677.913,1819.738 677.913,1894.142 742.349,1931.344 806.785,1894.142 806.785,1819.738 742.349,1782.536 	"/>
	
		<polygon points="
		677.913,1596.525 677.913,1670.929 742.349,1708.132 806.785,1670.929 806.785,1596.525 742.349,1559.323 	"/>
	
		<polygon points="
		742.272,1484.919 742.272,1559.323 806.708,1596.525 871.145,1559.323 871.145,1484.919 806.708,1447.716 	"/>
	
		<polygon points="
		677.913,1373.312 677.913,1447.716 742.349,1484.919 806.785,1447.716 806.785,1373.312 742.349,1336.11 	"/>
	
		<polygon points="
		742.272,1261.706 742.272,1336.11 806.708,1373.312 871.145,1336.11 871.145,1261.706 806.708,1224.504 	"/>
	
		<polygon points="
		613.553,2154.557 613.553,2228.962 677.989,2266.164 742.425,2228.962 742.425,2154.557 677.989,2117.355 	"/>
	
		<polygon points="
		549.193,2042.951 549.193,2117.355 613.629,2154.557 678.065,2117.355 678.065,2042.951 613.629,2005.749 	"/>
	
		<polygon points="
		613.553,1931.344 613.553,2005.749 677.989,2042.951 742.425,2005.749 742.425,1931.344 677.989,1894.142 	"/>
	
		<polygon points="
		549.193,1819.738 549.193,1894.142 613.629,1931.344 678.065,1894.142 678.065,1819.738 613.629,1782.536 	"/>
	
		<polygon points="
		613.553,1708.132 613.553,1782.536 677.989,1819.738 742.425,1782.536 742.425,1708.132 677.989,1670.929 	"/>
	
		<polygon points="
		549.193,1596.525 549.193,1670.929 613.629,1708.132 678.065,1670.929 678.065,1596.525 613.629,1559.323 	"/>
	
		<polygon points="
		613.553,1484.919 613.553,1559.323 677.989,1596.525 742.425,1559.323 742.425,1484.919 677.989,1447.716 	"/>
	
		<polygon points="
		549.193,1373.312 549.193,1447.716 613.629,1484.919 678.065,1447.716 678.065,1373.312 613.629,1336.11 	"/>
	
		<polygon points="
		613.553,1261.706 613.553,1336.11 677.989,1373.312 742.425,1336.11 742.425,1261.706 677.989,1224.504 	"/>
	
		<polygon points="
		484.834,2154.557 484.834,2228.962 549.27,2266.164 613.706,2228.962 613.706,2154.557 549.27,2117.355 	"/>
	
		<polygon points="
		420.474,2042.951 420.474,2117.355 484.91,2154.557 549.346,2117.355 549.346,2042.951 484.91,2005.749 	"/>
	
		<polygon points="
		484.834,1931.344 484.834,2005.749 549.27,2042.951 613.706,2005.749 613.706,1931.344 549.27,1894.142 	"/>
	
		<polygon points="
		420.474,1819.738 420.474,1894.142 484.91,1931.344 549.346,1894.142 549.346,1819.738 484.91,1782.536 	"/>
	
		<polygon points="
		484.834,1708.132 484.834,1782.536 549.27,1819.738 613.706,1782.536 613.706,1708.132 549.27,1670.929 	"/>
	
		<polygon points="
		420.474,1596.525 420.474,1670.929 484.91,1708.132 549.346,1670.929 549.346,1596.525 484.91,1559.323 	"/>
	
		<polygon points="
		484.834,1484.919 484.834,1559.323 549.27,1596.525 613.706,1559.323 613.706,1484.919 549.27,1447.716 	"/>
	
		<polygon points="
		420.474,1373.312 420.474,1447.716 484.91,1484.919 549.346,1447.716 549.346,1373.312 484.91,1336.11 	"/>
	
		<polygon points="
		484.834,1261.706 484.834,1336.11 549.27,1373.312 613.706,1336.11 613.706,1261.706 549.27,1224.504 	"/>
	
		<polygon points="
		420.474,1150.099 420.474,1224.504 484.91,1261.706 549.346,1224.504 549.346,1150.099 484.91,1112.897 	"/>
	
		<polygon points="
		356.114,2154.557 356.114,2228.962 420.55,2266.164 484.986,2228.962 484.986,2154.557 420.55,2117.355 	"/>
	
		<polygon points="
		291.754,2042.951 291.754,2117.355 356.19,2154.557 420.626,2117.355 420.626,2042.951 356.19,2005.749 	"/>
	
		<polygon points="
		356.114,1931.344 356.114,2005.749 420.55,2042.951 484.986,2005.749 484.986,1931.344 420.55,1894.142 	"/>
	
		<polygon points="
		291.754,1819.738 291.754,1894.142 356.19,1931.344 420.626,1894.142 420.626,1819.738 356.19,1782.536 	"/>
	
		<polygon points="
		356.114,1708.132 356.114,1782.536 420.55,1819.738 484.986,1782.536 484.986,1708.132 420.55,1670.929 	"/>
	
		<polygon points="
		291.754,1596.525 291.754,1670.929 356.19,1708.132 420.626,1670.929 420.626,1596.525 356.19,1559.323 	"/>
	
		<polygon points="
		356.114,1484.919 356.114,1559.323 420.55,1596.525 484.986,1559.323 484.986,1484.919 420.55,1447.716 	"/>
	
		<polygon points="
		291.754,1373.312 291.754,1447.716 356.19,1484.919 420.626,1447.716 420.626,1373.312 356.19,1336.11 	"/>
	
		<polygon points="
		356.114,1261.706 356.114,1336.11 420.55,1373.312 484.986,1336.11 484.986,1261.706 420.55,1224.504 	"/>
	
		<polygon points="
		291.754,1150.099 291.754,1224.504 356.19,1261.706 420.626,1224.504 420.626,1150.099 356.19,1112.897 	"/>
	
		<polygon points="
		356.114,1038.493 356.114,1112.897 420.55,1150.099 484.986,1112.897 484.986,1038.493 420.55,1001.291 	"/>
	
		<polygon points="
		227.395,1931.344 227.395,2005.749 291.831,2042.951 356.267,2005.749 356.267,1931.344 291.831,1894.142 	"/>
	
		<polygon points="
		163.035,1819.738 163.035,1894.142 227.471,1931.344 291.907,1894.142 291.907,1819.738 227.471,1782.536 	"/>
	
		<polygon points="
		227.395,1708.132 227.395,1782.536 291.831,1819.738 356.267,1782.536 356.267,1708.132 291.831,1670.929 	"/>
	
		<polygon points="
		227.395,1484.919 227.395,1559.323 291.831,1596.525 356.267,1559.323 356.267,1484.919 291.831,1447.716 	"/>
	
		<polygon points="
		227.395,1261.706 227.395,1336.11 291.831,1373.312 356.267,1336.11 356.267,1261.706 291.831,1224.504 	"/>
	
		<polygon points="
		163.035,1150.099 163.035,1224.504 227.471,1261.706 291.907,1224.504 291.907,1150.099 227.471,1112.897 	"/>
	
		<polygon points="
		227.395,1038.493 227.395,1112.897 291.831,1150.099 356.267,1112.897 356.267,1038.493 291.831,1001.291 	"/>
</g>
<g id="YT">
	
		<polygon points="
		677.913,1150.099 677.913,1224.504 742.349,1261.706 806.785,1224.504 806.785,1150.099 742.349,1112.897 	"/>
	
		<polygon points="
		677.913,926.886 677.913,1001.291 742.349,1038.493 806.785,1001.291 806.785,926.886 742.349,889.684 	"/>
	
		<polygon points="
		677.913,703.673 677.913,778.078 742.349,815.28 806.785,778.078 806.785,703.673 742.349,666.471 	"/>
	
		<polygon points="
		677.913,480.461 677.913,554.865 742.349,592.067 806.785,554.865 806.785,480.461 742.349,443.258 	"/>
	
		<polygon points="
		549.193,1150.099 549.193,1224.504 613.629,1261.706 678.065,1224.504 678.065,1150.099 613.629,1112.897 	"/>
	
		<polygon points="
		613.553,1038.493 613.553,1112.897 677.989,1150.099 742.425,1112.897 742.425,1038.493 677.989,1001.291 	"/>
	
		<polygon points="
		549.193,926.886 549.193,1001.291 613.629,1038.493 678.065,1001.291 678.065,926.886 613.629,889.684 	"/>
	
		<polygon points="
		613.553,815.28 613.553,889.684 677.989,926.886 742.425,889.684 742.425,815.28 677.989,778.078 	"/>
	
		<polygon points="
		549.193,703.673 549.193,778.078 613.629,815.28 678.065,778.078 678.065,703.673 613.629,666.471 	"/>
	
		<polygon points="
		613.553,592.067 613.553,666.471 677.989,703.673 742.425,666.471 742.425,592.067 677.989,554.865 	"/>
	
		<polygon points="
		549.193,480.461 549.193,554.865 613.629,592.067 678.065,554.865 678.065,480.461 613.629,443.258 	"/>
	
		<polygon points="
		613.553,368.854 613.553,443.258 677.989,480.461 742.425,443.258 742.425,368.854 677.989,331.652 	"/>
	
		<polygon points="
		484.834,1038.493 484.834,1112.897 549.27,1150.099 613.706,1112.897 613.706,1038.493 549.27,1001.291 	"/>
	
		<polygon points="
		420.474,926.886 420.474,1001.291 484.91,1038.493 549.346,1001.291 549.346,926.886 484.91,889.684 	"/>
	
		<polygon points="
		484.834,815.28 484.834,889.684 549.27,926.886 613.706,889.684 613.706,815.28 549.27,778.078 	"/>
	
		<polygon points="
		420.474,703.673 420.474,778.078 484.91,815.28 549.346,778.078 549.346,703.673 484.91,666.471 	"/>
	
		<polygon points="
		484.834,592.067 484.834,666.471 549.27,703.673 613.706,666.471 613.706,592.067 549.27,554.865 	"/>
	
		<polygon points="
		420.474,480.461 420.474,554.865 484.91,592.067 549.346,554.865 549.346,480.461 484.91,443.258 	"/>
	
		<polygon points="
		484.834,368.854 484.834,443.258 549.27,480.461 613.706,443.258 613.706,368.854 549.27,331.652 	"/>
	
		<polygon points="
		291.754,926.886 291.754,1001.291 356.19,1038.493 420.626,1001.291 420.626,926.886 356.19,889.684 	"/>
	
		<polygon points="
		356.114,815.28 356.114,889.684 420.55,926.886 484.986,889.684 484.986,815.28 420.55,778.078 	"/>
	
		<polygon points="
		291.754,703.673 291.754,778.078 356.19,815.28 420.626,778.078 420.626,703.673 356.19,666.471 	"/>
	
		<polygon points="
		356.114,592.067 356.114,666.471 420.55,703.673 484.986,666.471 484.986,592.067 420.55,554.865 	"/>
	
		<polygon points="
		227.395,815.28 227.395,889.684 291.831,926.886 356.267,889.684 356.267,815.28 291.831,778.078 	"/>
</g>
</svg>
